<svg xmlns="http://www.w3.org/2000/svg" xmlns:xlink="http://www.w3.org/1999/xlink" preserveAspectRatio="xMidYMid" width="8.25" height="15.38" viewBox="0 0 8.25 15.38">
  <defs>
    <style>
      .cls-1 {
        fill: #fff;
        fill-rule: evenodd;
      }
    </style>
  </defs>
  <path d="M7.937,-0.001 L5.962,-0.004 C3.743,-0.004 2.309,1.482 2.309,3.781 L2.309,5.526 L0.323,5.526 C0.152,5.526 0.013,5.665 0.013,5.839 L0.013,8.369 C0.013,8.541 0.152,8.682 0.323,8.682 L2.309,8.682 L2.309,15.062 C2.309,15.235 2.448,15.376 2.620,15.376 L5.210,15.376 C5.381,15.376 5.521,15.235 5.521,15.062 L5.521,8.682 L7.842,8.682 C8.014,8.682 8.153,8.541 8.153,8.369 L8.154,5.839 C8.154,5.757 8.121,5.677 8.063,5.618 C8.005,5.559 7.926,5.526 7.843,5.526 L5.521,5.526 L5.521,4.046 C5.521,3.336 5.689,2.974 6.605,2.974 L7.936,2.974 C8.108,2.974 8.246,2.833 8.246,2.661 L8.246,0.313 C8.246,0.139 8.108,-0.001 7.937,-0.001 L7.937,-0.001 Z" class="cls-1"/>
</svg>
