<svg xmlns="http://www.w3.org/2000/svg" xmlns:xlink="http://www.w3.org/1999/xlink" preserveAspectRatio="xMidYMid" width="24" height="13" viewBox="0 0 24 13">
  <defs>
    <style>
      .cls-1 {
        fill: #fff;
        fill-rule: evenodd;
      }
    </style>
  </defs>
  <path d="M20.655,8.266 C21.451,9.010 22.291,9.710 23.005,10.529 C23.320,10.893 23.618,11.269 23.848,11.691 C24.172,12.291 23.878,12.952 23.316,12.988 L19.819,12.987 C18.918,13.058 18.199,12.711 17.593,12.120 C17.109,11.649 16.661,11.146 16.196,10.658 C16.004,10.459 15.804,10.271 15.566,10.123 C15.089,9.826 14.675,9.917 14.401,10.394 C14.123,10.878 14.061,11.415 14.033,11.955 C13.996,12.743 13.747,12.950 12.920,12.987 C11.153,13.066 9.476,12.810 7.917,11.957 C6.544,11.205 5.478,10.142 4.551,8.940 C2.746,6.599 1.363,4.026 0.120,1.381 C-0.160,0.785 0.045,0.465 0.732,0.454 C1.873,0.432 3.013,0.434 4.155,0.452 C4.619,0.459 4.926,0.713 5.105,1.132 C5.721,2.585 6.477,3.966 7.424,5.247 C7.677,5.588 7.935,5.929 8.301,6.169 C8.706,6.435 9.015,6.347 9.206,5.915 C9.327,5.641 9.380,5.345 9.407,5.052 C9.498,4.042 9.509,3.033 9.351,2.027 C9.254,1.398 8.884,0.992 8.229,0.873 C7.895,0.812 7.944,0.693 8.106,0.511 C8.387,0.196 8.652,-0.000 9.179,-0.000 L13.131,-0.000 C13.752,0.117 13.890,0.385 13.975,0.984 L13.979,5.185 C13.972,5.417 14.100,6.105 14.537,6.259 C14.885,6.369 15.116,6.101 15.326,5.889 C16.271,4.928 16.947,3.792 17.550,2.616 C17.818,2.099 18.048,1.561 18.270,1.025 C18.436,0.627 18.696,0.431 19.164,0.439 L22.967,0.443 C23.079,0.443 23.194,0.444 23.304,0.462 C23.945,0.566 24.120,0.831 23.923,1.429 C23.611,2.369 23.004,3.152 22.410,3.939 C21.776,4.779 21.098,5.590 20.469,6.435 C19.891,7.207 19.936,7.596 20.655,8.266 L20.655,8.266 Z" class="cls-1"/>
</svg>
